PathFileType	4	(X/Y/Z)	C:/Users/beibeiliu/ov580/test_trc/User3\sequence.25_training_dense_right.trc
DataRate	CameraRate	NumFrames	NumMarkers	Units	OrigDataRate	OrigDataStartFrame	OrigNumFrames
120	120	16	19	mm	120	1	75
Frame#	Time	ThumbCMC			ThumbMCP			ThumbIP			ThumbTip			IndexMCP			IndexPIP			IndexTip			MiddleMCP			MiddlePIP			MiddleTip			RingMCP			RingPIP			RingTip			PinkyMCP			PinkyPIP			PinkyTip			BackHand1			BackHand2			BackHand3	
		X0	Y0	Z0	X1	Y1	Z1	X2	Y2	Z2	X3	Y3	Z3	X4	Y4	Z4	X5	Y5	Z5	X6	Y6	Z6	X7	Y7	Z7	X8	Y8	Z8	X9	Y9	Z9	X10	Y10	Z10	X11	Y11	Z11	X12	Y12	Z12	X13	Y13	Z13	X14	Y14	Z14	X15	Y15	Z15	X16	Y16	Z16	X17	Y17	Z17	X18	Y18	Z18	
0	0	70.8397	-1.09816	3.5146	47.6509	-11.9632	-24.5272	40.6708	-23.2552	-53.3592	50.1709	-37.7643	-73.2602	86.1669	11.499	-71.6937	68.9818	-10.1546	-93.7307	49.5055	-29.5138	-83.985	100.656	-4.08982	-78.6661	78.0474	-25.3034	-93.4879	62.9763	-51.0787	-67.3715	111.532	-17.3026	-73.2798	93.1258	-40.7049	-83.4989	79.1214	-55.944	-55.7649	122.472	-30.4867	-62.7697	104.171	-50.7838	-71.0913	91.1243	-60.871	-46.9538	129.889	-0.129672	-21.2029	132.518	-1.6158	11.036	104.027	16.9337	-1.50066	
1	0.00833333	71.452	-0.518985	-2.23386	53.9977	-13.0272	-23.807	45.2798	-23.9023	-55.2625	48.809	-39.6463	-74.0463	89.4175	9.09696	-72.0241	70.4426	-10.5842	-94.6994	54.3313	-33.8734	-78.2933	101.316	-3.66888	-77.5475	78.3252	-29.2341	-92.6122	63.7429	-52.2833	-66.049	111.653	-18.79	-74.7877	100.286	-43.8241	-83.196	79.7085	-56.0494	-56.0262	124.265	-32.7714	-61.0294	105.03	-53.2677	-69.938	89.8902	-57.5844	-44.6781	131.89	-2.64813	-21.0336	134.173	-4.49499	10.6062	106.881	17.2341	-5.02889	
2	0.0166667	72.1071	-1.94042	3.29574	56.9476	-14.8849	-26.0625	45.8716	-24.8799	-54.6613	54.1519	-39.6713	-73.4334	92.2842	7.3929	-71.848	73.9839	-8.45307	-93.7744	58.0293	-33.3478	-78.8836	102.173	-7.01393	-81.2503	80.9661	-29.5488	-92.7375	66.0523	-53.767	-65.0493	116.759	-22.1635	-73.0168	99.5743	-42.5462	-83.0386	82.8136	-57.3598	-56.437	126.295	-34.3209	-62.1101	109.115	-54.2824	-69.2127	92.5143	-60.7772	-47.6222	134.929	-4.96824	-21.2849	139.047	-7.49985	8.70421	111.048	14.3857	-2.87032	
3	0.025	72.6562	-2.18974	0.659768	55.1713	-14.6684	-23.7706	48.3554	-25.3617	-55.8119	54.4996	-41.5368	-75.1797	92.2904	8.77667	-70.1746	73.0675	-12.5859	-92.7466	59.7492	-35.2895	-76.5263	107.722	-9.231	-79.3844	84.9612	-33.317	-92.2534	70.2617	-54.382	-66.1247	117.014	-21.9642	-74.4374	98.9571	-47.0978	-82.0253	82.7657	-57.0358	-56.0255	128.098	-35.5186	-60.5152	111.216	-53.9036	-69.7537	92.1359	-62.1541	-43.6529	135.026	-3.15884	-20.5146	137.773	-10.0175	11.8883	108.86	14.8913	-5.74382	
4	0.0333333	72.6838	-0.950868	-0.867493	57.0035	-14.5407	-24.731	47.8604	-24.7278	-54.5296	55.9885	-41.6083	-74.9064	94.443	6.20662	-73.756	75.4565	-10.4171	-94.0553	60.9321	-34.8324	-77.1914	106.124	-5.48611	-76.5191	83.8767	-32.226	-91.7504	67.839	-52.6525	-67.7864	118.463	-21.5071	-69.543	97.0248	-45.7033	-81.7703	82.0199	-57.8734	-54.5791	130.416	-37.5221	-58.2778	107.521	-56.1236	-68.8661	93.1825	-61.6801	-42.9797	135.672	-5.32206	-17.5507	141.687	-10.7356	11.7337	113.871	10.897	-2.43571	
5	0.0416667	72.7449	-1.90676	-2.45108	58.5037	-15.3463	-25.4736	48.379	-25.5789	-50.4058	53.8358	-40.5899	-72.2058	91.6533	7.57963	-72.9216	77.7048	-15.0545	-93.4253	54.6614	-33.2788	-75.7643	107.877	-7.63567	-77.2086	87.8442	-31.5693	-93.7814	67.6712	-51.6348	-69.6413	116.376	-21.8987	-73.1514	101.173	-46.4878	-83.2879	82.406	-56.2787	-58.9746	129.405	-39.1263	-62.0877	109.702	-53.8837	-70.5078	91.977	-63.7134	-42.0532	138.109	-8.4818	-20.9986	138.352	-9.87206	8.50961	113.175	11.3329	-6.84657	
6	0.05	74.0818	-2.86753	-2.35482	54.3895	-13.5842	-25.7535	43.8479	-24.2117	-55.0368	49.7588	-41.1662	-75.1772	92.3733	7.07721	-73.7039	73.0009	-11.6611	-94.7768	58.7854	-35.2578	-78.7796	105.434	-5.52308	-79.0904	85.7046	-29.3872	-94.3865	66.9946	-51.8016	-69.1372	119.256	-24.0004	-74.1748	101.166	-46.814	-83.4044	83.5963	-58.5161	-58.6679	128.34	-36.2033	-59.7577	108.868	-57.3204	-69.1275	91.9438	-62.5182	-42.3114	135.593	-5.10161	-18.5447	135.734	-8.45719	10.3105	110.553	12.6335	-6.75263	
7	0.0583333	72.3596	-2.0914	1.67324	54.5084	-13.2266	-26.2864	44.9265	-24.0288	-54.0709	51.2641	-40.3046	-76.8607	91.0887	9.26887	-74.8001	74.5701	-14.2578	-94.203	55.4776	-35.1334	-78.1397	105.843	-7.54299	-80.4637	84.9245	-29.9718	-94.1097	68.078	-54.5746	-66.2652	118.752	-24.6284	-74.5656	100.917	-47.5376	-82.9422	81.2489	-56.4762	-60.1163	129.289	-35.444	-59.2389	110.307	-53.2646	-71.4014	91.7688	-64.2583	-45.5182	135.529	-2.95614	-22.9926	136.65	-7.83589	11.9282	108.953	14.9262	-3.7791	
8	0.0666667	75.3418	-3.67158	-2.97042	54.7597	-14.1851	-25.6974	46.9972	-24.4554	-51.8199	50.4005	-40.3493	-74.6925	92.1472	6.69284	-74.9719	74.7537	-12.0815	-95.5565	58.3864	-33.8878	-83.1136	106.951	-7.47185	-79.4405	84.3763	-32.4581	-93.3418	67.6147	-51.1158	-71.5811	118.39	-20.6953	-71.3322	100.788	-43.6169	-84.3552	81.5418	-58.1689	-57.2601	129.481	-36.9999	-61.2752	107.879	-53.3803	-70.3357	94.8338	-65.3176	-47.0254	138.946	-6.31848	-21.5971	139.203	-10.5217	8.64036	111.344	11.2438	-3.09532	
9	0.075	73.1868	-3.14816	2.0308	54.7368	-15.6264	-26.0857	45.7284	-24.7264	-51.9927	51.5783	-40.5503	-76.3023	94.3909	4.93133	-74.4542	75.8741	-9.09576	-95.0228	57.0845	-35.1119	-81.7488	103.697	-7.08229	-81.656	83.8409	-32.9391	-93.492	65.5557	-52.4347	-71.3526	119.041	-22.6754	-71.3918	100.009	-43.9884	-84.4774	81.0767	-57.9365	-59.3617	130.666	-40.0341	-61.6613	108.732	-55.7469	-70.6393	90.6748	-62.8738	-47.9477	133.424	-6.72385	-18.972	138.62	-12.1534	7.49666	113.929	10.3809	-2.24286	
10	0.0833333	76.1678	-3.8059	-0.906967	53.6997	-14.1049	-28.0611	43.2019	-25.1158	-53.7733	52.9953	-41.4646	-75.8082	93.2104	7.6767	-71.2928	73.869	-12.078	-95.5039	60.1042	-35.903	-85.6284	105.365	-9.40138	-80.3307	87.8208	-32.1212	-94.6167	67.5666	-53.8685	-70.4848	118.647	-25.3249	-74.5147	100.274	-46.0359	-84.2797	81.4637	-58.9752	-59.3537	130.281	-41.3328	-61.3832	108.539	-55.6776	-70.2468	89.8318	-62.9813	-44.2608	134.21	-7.05469	-17.3789	138.775	-10.7376	11.6207	111.951	8.78117	-2.13084	
11	0.0916667	74.1852	-4.38041	3.05197	58.5172	-15.1365	-25.4025	45.2032	-24.851	-56.5703	52.0766	-41.3895	-78.0604	91.2236	7.22082	-73.8966	76.2005	-13.0271	-95.8717	57.0355	-36.1964	-84.7355	104.396	-6.56007	-77.7667	85.3222	-32.3793	-94.5805	63.9331	-52.9405	-70.8458	118.427	-23.923	-74.3452	101.054	-46.2232	-84.2216	80.4802	-57.8361	-58.2266	125.643	-37.5902	-63.9476	106.153	-57.3919	-69.902	91.9849	-64.5194	-44.7765	136.047	-7.66424	-22.9415	137.73	-11.0359	9.5239	108.872	11.7383	-6.28423	
12	0.1	71.972	-2.94316	1.86211	57.2048	-14.8502	-26.0401	45.3934	-24.3319	-51.3854	50.0612	-38.7138	-74.6256	90.9326	7.90205	-76.3482	76.4289	-12.7136	-95.7415	56.2079	-31.5653	-88.3121	102.436	-7.3902	-82.2765	85.1185	-34.6707	-93.1271	66.5407	-54.074	-70.6458	116.78	-23.0392	-75.2305	99.7308	-48.4288	-83.3685	78.994	-57.2013	-59.9396	127.904	-38.5173	-64.3291	106.72	-54.7142	-71.0256	90.2772	-62.0494	-47.0189	135.559	-4.79731	-21.2474	136.734	-11.2842	8.71579	110.19	13.0066	-2.34916	
13	0.108333	75.8693	-4.75218	-0.981871	56.2664	-15.5827	-26.8313	47.4155	-23.9261	-53.1699	49.4705	-38.7565	-73.7077	92.7612	5.91601	-72.6022	76.7854	-12.8618	-95.7364	54.3488	-36.6682	-86.3638	107.512	-8.6415	-78.6559	86.9623	-31.0174	-94.7745	66.215	-56.1821	-69.8747	118.296	-25.1223	-76.206	97.5032	-42.5288	-84.889	82.1478	-58.8187	-62.933	130.281	-39.0148	-61.6675	106.746	-56.7344	-70.3003	90.7157	-62.2363	-51.0255	134.606	-5.86762	-18.3604	137.34	-10.9288	7.55507	109.639	13.2716	-2.17168	
14	0.116667	74.5915	-3.49468	-1.70629	53.4805	-14.1256	-25.9958	47.0373	-23.4562	-54.0875	52.8161	-38.932	-79.4492	90.6528	7.20048	-77.2615	74.9128	-14.3987	-95.7346	54.5615	-34.0002	-89.4202	103.132	-6.23496	-80.1347	87.6608	-29.8008	-95.2593	65.4699	-54.571	-72.1819	119.533	-24.8635	-75.1466	97.4488	-46.7922	-84.4345	79.5691	-57.7833	-59.216	129.117	-38.0013	-61.7524	111.106	-57.7859	-72.7148	89.4314	-64.1051	-48.7248	137.594	-7.92242	-20.7524	136.794	-9.27427	9.17489	110.115	11.9434	-6.7713	
15	0.125	74.0993	-1.74436	-2.59875	56.8809	-14.4965	-27.5287	46.7504	-23.3034	-54.5471	52.3267	-37.8295	-76.5527	89.9582	7.82533	-76.6017	71.8104	-12.5773	-95.4776	53.0562	-33.7527	-91.1623	103.449	-7.7024	-82.1112	81.6724	-29.8228	-94.3832	63.7459	-52.9422	-74.3518	116.255	-21.542	-76.0292	102.787	-46.1666	-85.935	81.5256	-60.1319	-60.6578	130.002	-38.2003	-63.1203	110.91	-56.61	-72.5813	89.9934	-64.1569	-51.4367	140.173	-7.62924	-19.9967	141.145	-10.8319	6.67176	111.344	11.4107	-3.52412	
